<svg aria-hidden="true" style="position:absolute;width:0;height:0;overflow:hidden" xmlns="http://www.w3.org/2000/svg"><defs><symbol id="icon-instagram" viewBox="0 0 32 32"><path d="M31.97 9.4c-.03-1.4-.3-2.73-.76-3.96l.02.08a7.86 7.86 0 0 0-1.85-2.83A7.95 7.95 0 0 0 26.54.85 11.48 11.48 0 0 0 22.67.1h-.01a104.86 104.86 0 0 0-6.69-.1h.1c-4.36 0-4.9.02-6.6.1C7.76.16 6.6.45 5.58.83A8 8 0 0 0 2.75 2.7 8 8 0 0 0 .9 5.52 11.47 11.47 0 0 0 .16 9.4a104.86 104.86 0 0 0-.1 6.69V16c0 4.35 0 4.9.08 6.6.03 1.4.3 2.73.78 3.96l-.02-.08a7.78 7.78 0 0 0 1.85 2.83 8 8 0 0 0 2.83 1.86c1.01.38 2.18.65 3.88.73 1.7.08 2.24.1 6.59.1s4.9-.02 6.6-.1c1.4-.02 2.73-.29 3.96-.76l-.08.03a8.24 8.24 0 0 0 4.67-4.64l.02-.05c.38-1.02.67-2.18.73-3.89.08-1.7.1-2.24.1-6.59 0-4.34 0-4.88-.08-6.6zm-2.88 13.08a8.54 8.54 0 0 1-.55 2.96 5.34 5.34 0 0 1-3 3.03l-.04.01c-.56.22-1.42.48-2.97.54-1.68.08-2.2.1-6.47.1a106.97 106.97 0 0 1-6.7-.1h.24a8.45 8.45 0 0 1-2.96-.54 4.96 4.96 0 0 1-1.84-1.2c-.52-.5-.93-1.1-1.19-1.79l-.01-.03a8.64 8.64 0 0 1-.54-2.98 108.65 108.65 0 0 1-.1-6.55v.09c0-4.28.02-4.79.1-6.47.06-1.57.32-2.4.54-2.97.26-.7.66-1.32 1.2-1.83.5-.52 1.12-.93 1.8-1.19h.04c.56-.23 1.4-.49 2.98-.55 1.68-.08 2.19-.1 6.44-.1 4.3 0 4.8 0 6.47.1 1.57.06 2.4.32 2.97.54.7.26 1.33.66 1.84 1.2.53.51.95 1.14 1.2 1.83.21.57.48 1.42.55 2.97.08 1.68.1 2.2.1 6.47s-.02 4.76-.1 6.46z"/><path d="M16.06 7.78a8.22 8.22 0 1 0 0 16.44 8.22 8.22 0 1 0 0-16.44zm0 13.55a5.33 5.33 0 1 1 0-10.66 5.33 5.33 0 1 1 0 10.66zM26.53 7.46a1.92 1.92 0 0 1-3.84 0 1.92 1.92 0 0 1 3.84 0z"/></symbol><symbol id="icon-twitter" viewBox="0 0 32 32"><path d="M32 6.08c-1.12.48-2.4.8-3.84.96a6.44 6.44 0 0 0 2.87-3.48l.01-.04c-1.28.8-2.56 1.28-4.16 1.6a6.55 6.55 0 0 0-11.36 4.47c0 .51.06 1.01.17 1.5l-.01-.05A18.49 18.49 0 0 1 2.24 4.16a6.55 6.55 0 0 0 2.06 8.79l.02.01a6.38 6.38 0 0 1-3.07-.82l.03.02a6.4 6.4 0 0 0 5.28 6.4 6.25 6.25 0 0 1-3.08.15l.04.01c.96 2.72 3.2 4.64 6.24 4.64a13.04 13.04 0 0 1-9.83 2.71l.07.01C2.88 28 6.4 28.8 10.08 28.8h.01A18.56 18.56 0 0 0 28.64 9.57v.03A13.4 13.4 0 0 0 32 6.24z"/></symbol><symbol id="icon-facebook" viewBox="0 0 32 32"><path d="M21.28 5.28h3.04V.16L20 0c-4.16 0-7.04 2.72-7.04 7.52V12H8v5.76h4.8V32h5.6V17.6h4.48l.8-5.6H18.4V8.16c0-1.6.48-2.88 2.72-2.88z"/></symbol><symbol id="icon-linkedin" viewBox="0 0 32 32"><path d="M32 32V20.32c0-5.76-1.28-10.24-8-10.24a6.92 6.92 0 0 0-6.24 3.52v-3.04H11.2V32h6.56V21.44c0-2.88.48-5.44 4-5.44 3.36 0 3.52 3.2 3.52 5.6V32H32zM.48 10.56H7.2V32H.48V10.56zM3.84 0A3.79 3.79 0 0 0 0 3.84c0 2.08 1.6 3.84 3.84 3.84a3.84 3.84 0 1 0 0-7.68z"/></symbol><symbol id="icon-antenna" viewBox="0 0 32 32"><path fill="#212121" style="fill:var(--color2, #212121)" d="m30.77 22.1-8.44-8.5.94-4.62c.24.09.5.14.76.14h.03a2.16 2.16 0 1 0-2.03-1.42V7.7l-4.96.6L8.97.16A.54.54 0 0 0 8.6 0a.52.52 0 0 0-.37.15L6.7 1.65a.53.53 0 0 0 0 .76l.82.82a14.9 14.9 0 0 0 2.52 17.66c.04.05.09.08.14.1-.03.2-.05.38-.05.56v6.18h-6.4a2.67 2.67 0 0 0-2.67 2.67v1.06c0 .3.24.54.54.54h24.53c.3 0 .53-.24.53-.54V30.4c0-1.47-1.2-2.67-2.66-2.67h-6.4V25a14.79 14.79 0 0 0 10.17-1.5l-.08.04.81.82c.1.1.24.16.38.16s.27-.06.37-.15l1.51-1.51a.53.53 0 0 0 0-.75zm-7.5-15.87A1.06 1.06 0 0 1 25.1 7c0 .59-.47 1.06-1.06 1.06a1.07 1.07 0 0 1-.75-1.82zm-1.25 3.5-.6 2.95-1.17-1.18 1.77-1.76zm-.6-.9-1.92 1.91L18 9.25l3.4-.41zM24 28.8c.89 0 1.6.72 1.6 1.6v.54H2.14v-.54c0-.88.72-1.6 1.6-1.6H24zm-7.46-2.14v1.07H11.2v-1.07h5.34zM11.2 25.6v-4.05c0-1.3 1.2-2.35 2.67-2.35s2.66 1.05 2.66 2.35v4.05H11.2zm6.4-1.7v-2.35c0-1.88-1.67-3.41-3.73-3.41h-.07a3.8 3.8 0 0 0-3.2 1.76l-.02.02A13.81 13.81 0 0 1 8.34 3.96l-.03.07 18.6 18.71a13.64 13.64 0 0 1-9.4 1.15l.1.01zm11.3-.68-.76-.76L7.84 2.04l.75-.75 21.06 21.18-.76.75z"/><path fill="#2196f3" style="fill:var(--color3, #2196f3)" d="M13.87 20.27a1.6 1.6 0 0 0 0 3.2 1.6 1.6 0 0 0 0-3.2zm.38 1.98a.53.53 0 0 1-.91-.38c0-.3.23-.54.53-.54a.54.54 0 0 1 .37.91z"/></symbol><symbol id="icon-astronaut" viewBox="0 0 32 32"><path fill="#2196f3" style="fill:var(--color3, #2196f3)" d="M31.97 4.53a.54.54 0 0 0-.43-.37l-1.9-.27-.86-1.74c-.18-.36-.78-.36-.96 0l-.85 1.74-1.9.27a.54.54 0 0 0-.3.92l1.38 1.34-.33 1.9v.09a.53.53 0 0 0 .78.47l1.7-.9 1.71.9a.53.53 0 0 0 .78-.57v.01l-.33-1.9 1.39-1.35c.14-.14.2-.35.13-.55zm-2.46 1.32a.53.53 0 0 0-.15.47l.19 1.12-1-.53a.52.52 0 0 0-.5 0l-1 .53.2-1.12a.53.53 0 0 0-.16-.47l-.81-.79 1.12-.16a.54.54 0 0 0 .4-.3l.5-1 .5 1c.08.16.23.27.4.3l1.12.16-.8.8zm-3.38 14.68h-1.06v1.06h1.07v-1.07zm0 2.13h-1.06v1.06h1.07v-1.06zm1.07-1.07h-1.06v1.07h1.06v-1.07zm-2.13 0H24v1.07h1.06v-1.07zm-2.67 4.8h-1.06v1.07h1.06v-1.07zm0 2.14h-1.06v1.06h1.06v-1.07zm1.07-1.07H22.4v1.06h1.06v-1.06zm-2.13 0h-1.07v1.06h1.07v-1.06zM16 24.26h-1.06v1.06H16v-1.06zm0 2.13h-1.06v1.07H16v-1.07zm1.07-1.06H16v1.06h1.06v-1.07zm-2.13 0h-1.07v1.06h1.07v-1.07zM5.87 6.13H4.8v1.06h1.07V6.12zm0 2.13H4.8v1.06h1.07V8.26zm1.06-1.07H5.86v1.07h1.07V7.19zm-2.13 0H3.74v1.07H4.8V7.19z"/><path fill="#212121" style="fill:var(--color2, #212121)" d="M24.71 14.16c-.28-.38-.7-.64-1.18-.7a1.77 1.77 0 0 0-1.34.35l-1.25.96-1.9 1.41-1.36-.54A6.93 6.93 0 0 0 14.83 2.4a6.95 6.95 0 0 0-5.84 10.7l-2.77-.03H6.2c-.06 0-.1.02-.16.03l-.03.02h-.03l-3.23 1.6-1.9.91a1.78 1.78 0 0 0 1.8 3.09h-.02l1.39-.73 2.26-1.17 1.36-.01-6.78 6.76a1.64 1.64 0 0 0 0 2.35 1.66 1.66 0 0 0 2.36 0l1.3-1.31 1.75-1.3.9.9-1.76 1.75-1.34 1.33a1.64 1.64 0 0 0 0 2.36 1.66 1.66 0 0 0 2.36 0l3.48-3.47 1.01-1 .02-.03 5.16-5.66 3.48.5h.06a.5.5 0 0 0 .2-.03l.05-.03.06-.02 3.21-2.13.03-.04.04-.02 1.27-1.2a1.78 1.78 0 0 0 .2-2.36h.01zm-22.58 3.6a.72.72 0 0 1-.78-1.2l1.32-.63.32.92.13.4-.99.52zm3.5-1.82-1.55.8-.26-.74-.18-.54 2.03-1-.04 1.48zm15.1-6.61a5.8 5.8 0 0 1-.6 2.56l-4.18-1.9a1.86 1.86 0 0 0-.78-1.39h-.01l1.46-4.86a5.87 5.87 0 0 1 4.1 5.59zm-11.8 0a5.89 5.89 0 0 1 6.68-5.82h-.03l-1.44 4.75h-.05c-1.03 0-1.87.83-1.87 1.86a1.87 1.87 0 0 0 3.48.93l3.87 1.75A5.9 5.9 0 0 1 8.93 9.33zm5.96.8a.8.8 0 1 1-1.61 0 .8.8 0 0 1 1.61 0zM2.47 25.15a.61.61 0 0 1-.86 0 .6.6 0 0 1 0-.85l.96-.96.86.85-.97.95zm3.21 3.73a.6.6 0 0 1-.85-.84l.96-.96.85.84-.96.96zm3.49-3.47L7.4 27.17l-.85-.85 1.76-1.75.1-.14.02-.04a.37.37 0 0 0 .02-.12l.02-.08-.02-.1-.02-.1a.7.7 0 0 0-.09-.14l-.03-.04-1.6-1.6-.06-.03c-.03-.03-.06-.05-.1-.06a.5.5 0 0 0-.08-.03.54.54 0 0 0-.1-.03l-.1.01-.1.02a.31.31 0 0 0-.1.05l-.06.02-1.77 1.33-.9-.9 2.4-2.39 4.36 4.3-.93.9zm6.81-7.02h-.07a.52.52 0 0 0-.35.14l-.05.03-4.7 5.15-4.32-4.25 2.83-2.83c.1-.1.16-.23.16-.37 0-.3-.24-.54-.53-.54l-2.23.01.03-1.6 3.1.02a6.93 6.93 0 0 0 6.31 1.97l-.04.01c.03.03.08.07.13.09l2.4.96.16.76.18.88-3-.42zm4.04.18-.3-1.55 1.44-1.08.38.5.56.75-2.08 1.38zm3.76-2.83-.84.79-.93-1.24.83-.64a.73.73 0 0 1 .55-.14.72.72 0 0 1 .4 1.23z"/><path fill="#212121" style="fill:var(--color2, #212121)" d="m13.6 18.55-2.14-2.14a.53.53 0 0 0-.75 0l-2.15 2.14a.53.53 0 0 0 0 .75l2.15 2.13a.53.53 0 0 0 .75 0l2.14-2.13a.53.53 0 0 0 0-.75zm-2.51 1.75-1.4-1.37 1.39-1.39 1.39 1.39-1.4 1.38zm6.08-15.23-.27 1.04c.08.01 1.74.45 1.74 2.15h1.07c0-2.02-1.67-2.97-2.54-3.19zm2.54 4.26h-1.07v1.06h1.07V9.32z"/></symbol><symbol id="icon-clock" viewBox="0 0 32 32"><path fill="#212121" style="fill:var(--color2, #212121)" d="M31.3 15.3a15.3 15.3 0 1 0-20.07 14.55l.1.03a.68.68 0 0 0 .54-.06c.14-.08.23-.2.28-.36l3.86-12.25a1.91 1.91 0 1 0-.85-3.63h.01l-5.1-5.1a.64.64 0 0 0-.9.9l5.1 5.1a1.87 1.87 0 0 0 .53 2.3v.01l-3.68 11.67a14.04 14.04 0 1 1 10.66-.38l-.09.03-.4-1.87a.64.64 0 0 0-1.05-.34l-3.83 3.42a.64.64 0 0 0 .22 1.08l4.9 1.57a.64.64 0 0 0 .82-.75l-.39-1.83a15.28 15.28 0 0 0 9.33-14.06v-.03zM16 14.66a.64.64 0 0 1 0 1.28.64.64 0 0 1 0-1.28zm2.1 14.87 2.18-1.95.6 2.84-2.8-.9z"/><path fill="#2196f3" style="fill:var(--color3, #2196f3)" d="M15.36 3.19v1.33a.64.64 0 1 0 1.27-.06V3.18a.64.64 0 0 0-1.28 0zM3.88 14.66a.64.64 0 0 0 0 1.28h1.27a.64.64 0 0 0 0-1.28H3.87zm24.23 1.28a.64.64 0 0 0 0-1.28h-1.28a.64.64 0 0 0 0 1.28h1.28z"/></symbol><symbol id="icon-diagram" viewBox="0 0 32 32"><path fill="#2196f3" style="fill:var(--color3, #2196f3)" d="M14.93 14.97h1.06v4.8h-1.06v-4.8zm4.26 2.13h1.07v2.66h-1.07V17.1zm-8.53 1.6h1.07v1.06h-1.07V18.7zm-3.2-.54h1.07v1.6H7.46v-1.6z"/><path fill="#212121" style="fill:var(--color2, #212121)" d="M1.6 28.3h25.59c.88 0 1.6-.72 1.6-1.6v-2.14c0-.89-.72-1.6-1.6-1.6h-.54V9.67l3.03-2.87a1.6 1.6 0 1 0-.75-.75v-.01L26.65 8.2V6.97c0-.88-.71-1.6-1.6-1.6H3.73c-.88 0-1.6.72-1.6 1.6v16H1.6c-.88 0-1.6.71-1.6 1.6v2.12c0 .89.72 1.6 1.6 1.6zM30.39 4.83h.04a.53.53 0 1 1-.05 1.06.54.54 0 0 1 0-1.06zM3.2 6.97c0-.3.24-.53.53-.53h21.32c.3 0 .54.23.54.53V9.2l-1.07 1.01V8.04c0-.3-.24-.54-.53-.54H4.8c-.3 0-.53.24-.53.54v13.32c0 .3.24.53.53.53H24c.29 0 .53-.23.53-.53V11.7l1.06-1.01v12.28H3.2v-16zM8 13.9h-.01a1.6 1.6 0 1 0 1.11 2.74l1.86.94c.21.1.47.05.63-.13l3.94-4.43 3.87 2.9c.21.16.5.14.69-.03l3.37-3.2v8.14H5.33V8.56h18.13v2.66l-3.78 3.57-3.9-2.92a.54.54 0 0 0-.72.07l-4 4.5-1.49-.75.03-.2c0-.88-.72-1.6-1.6-1.6zm.53 1.6a.53.53 0 1 1-1.07 0 .53.53 0 1 1 1.07 0zm3.2 8.53h5.32v.53c0 .3-.24.53-.53.53h-4.26a.54.54 0 0 1-.54-.53v-.53zm-10.67.53c0-.3.24-.53.54-.53h9.06v.53c0 .88.71 1.6 1.6 1.6h4.26c.89 0 1.6-.72 1.6-1.6v-.53h9.06c.3 0 .53.24.53.53v2.13c0 .3-.23.53-.53.53H1.6a.53.53 0 0 1-.53-.53v-2.13z"/></symbol><symbol id="icon-header-envelope" viewBox="0 0 43 32"><path d="M38.7 0H4a4 4 0 0 0-4 4V28a4 4 0 0 0 4 4h34.7a4 4 0 0 0 4-4V4a4 4 0 0 0-4-4zm0 2.66c.2 0 .37.04.54.11h-.01L21.35 18.25 3.47 2.77c.15-.07.33-.1.52-.1H38.7zm0 26.69H4c-.73 0-1.33-.6-1.33-1.34V5.6l17.8 15.42a1.33 1.33 0 0 0 1.76 0L40.03 5.6V28c0 .74-.6 1.34-1.34 1.34z"/></symbol><symbol id="icon-header-smartphone" viewBox="0 0 20 32"><path d="M17 0H3a3 3 0 0 0-3 3v26.02a3 3 0 0 0 3 3h14a3 3 0 0 0 3-3V3a3 3 0 0 0-3-3zM3 2h14a1 1 0 0 1 1 1v21.02H2V3a1 1 0 0 1 1-1zm14 28.02H3a1 1 0 0 1-1-1v-3h16v3a1 1 0 0 1-1 1z"/><path d="M4.7 27.5c.4.36.4.96 0 1.32a1.05 1.05 0 0 1-1.4 0 .9.9 0 0 1 0-1.32c.4-.36 1-.36 1.4 0z"/></symbol><symbol id="icon-icon-send" viewBox="0 0 32 32"><path fill="#fff" style="fill:var(--color5, #fff)" d="M32 0 0 18l10.23 3.8L26.01 7 14 23.2V32l5.73-6.69 7.27 2.7L32 0z"/></symbol><symbol id="icon-logo-1" viewBox="0 0 57 32"><path d="M20.27 3.73 24 7.27h-6.93v17.16H35.2v-6.56l3.74 3.53V3.73H20.27zm14.77 13.73L24.44 7.42h10.6v10.03zm-3.3 4.47h-11.8V10.38h.84v10.76h10.97v.79zm-9.01 4.8-.44.89-.44-.9h-.36l.64 1.2v.7h.33v-.7l.64-1.2h-.38zm.55 1.88.15-.43h.73l.16.43h.34l-.72-1.89h-.29l-.72 1.9h.35zm.51-1.49.28.79h-.55l.27-.79zm1.74.75a.43.43 0 0 0-.07.23c0 .16.06.3.17.4.11.1.27.14.45.14s.35-.05.48-.15l.1.12h.38l-.28-.32c.1-.15.16-.34.16-.58h-.27c0 .13-.03.25-.08.35l-.37-.43.13-.1c.1-.06.16-.12.2-.2a.42.42 0 0 0-.07-.52.48.48 0 0 0-.33-.11h-.04a.5.5 0 0 0-.34.12.46.46 0 0 0-.13.36c0 .06.01.12.04.19s.08.14.15.23c-.1.08-.2.17-.28.27zm.86.41a.48.48 0 0 1-.3.11h-.02a.3.3 0 0 1-.2-.08.28.28 0 0 1-.1-.2v-.01c0-.11.06-.2.17-.28l.04-.03.4.5zm-.34-.84c-.09-.1-.13-.2-.13-.27s.01-.12.05-.16a.19.19 0 0 1 .14-.06c.06 0 .11.02.15.05.04.04.05.08.05.13 0 .07-.03.14-.08.18l-.04.04-.14.1zm3.08 1.04c.14-.12.21-.28.23-.48h-.33c-.01.13-.06.23-.12.29-.07.06-.16.08-.3.08a.37.37 0 0 1-.31-.16.82.82 0 0 1-.12-.47v-.16c0-.2.04-.36.12-.46.08-.1.19-.16.33-.16.13 0 .22.03.28.1s.1.15.12.29h.33a.72.72 0 0 0-.22-.49.73.73 0 0 0-.47-.17h-.04c-.16 0-.29.04-.4.11a.73.73 0 0 0-.28.32c-.06.13-.1.3-.1.47v.18c0 .17.04.33.1.46s.15.23.27.3c.12.08.25.11.4.11.21 0 .39-.05.52-.16zm1.94-.27c.06-.15.1-.3.1-.5v-.1c0-.19-.04-.35-.1-.48a.73.73 0 0 0-.67-.44h-.02c-.15 0-.3.04-.4.12s-.22.18-.29.32c-.06.15-.1.3-.1.5v.1c0 .18.04.34.1.48s.16.24.28.32c.12.07.26.11.41.11.16 0 .3-.04.42-.1a.75.75 0 0 0 .27-.33zm-.35-1.07c.08.1.12.27.12.48v.1c0 .21-.04.37-.12.48a.38.38 0 0 1-.32.17h-.03a.4.4 0 0 1-.32-.17.82.82 0 0 1-.13-.49v-.1c0-.2.05-.36.13-.48a.39.39 0 0 1 .33-.16.4.4 0 0 1 .34.16z"/></symbol><symbol id="icon-logo-2" viewBox="0 0 57 32"><path d="M26.73 3.16h-.07l-.33-.01h-.3c-.23 0-.45 0-.68.02h.03c-1.94.1-3.84.6-5.6 1.43l-.23.1v11.82l.54-.19c1.73-.62 3.72-.99 5.8-1.01h.01v1.55l-.56.01h-.05c-2.68.15-5.17.9-7.37 2.1l.1-.04V3.78a15.5 15.5 0 0 1 4.04-1.66l.1-.02c1.18-.32 2.53-.5 3.92-.5h.23c.97 0 1.91.13 2.81.36l-.08-.02v1.54c-.54-.14-1.18-.24-1.84-.29h-.08l-.39-.03zm2.69 1.56a16.46 16.46 0 0 0 5.27-.51l-.12.02a16.9 16.9 0 0 0 4.05-1.58l-.09.04v14.88c-1.2.7-2.58 1.29-4.04 1.66l-.11.03c-1.28.32-2.6.5-3.91.5h-.1c-1.02 0-2.01-.13-2.96-.37l.09.02V4.44c.55.13 1.2.23 1.88.28h.04zm7.57.12-.54.18a17.9 17.9 0 0 1-7.02 1h.04l-.42-.03v12.14l.37.04a14.35 14.35 0 0 0 4.69-.43l-.1.01c1.05-.27 1.96-.6 2.83-1.03l-.09.04.24-.11V4.85zM19.06 24.11a.8.8 0 0 0-.57-.24h-.03a.97.97 0 0 0-.35.07.8.8 0 0 0-.5.78v2.03a.85.85 0 0 0 .28.68c.08.07.18.12.28.15s.2.04.3.04c.46-.01.84-.39.84-.85v-.23h-.54v.18c.01.06 0 .12-.02.18a.31.31 0 0 1-.08.12.37.37 0 0 1-.22.07h-.03a.27.27 0 0 1-.22-.1.48.48 0 0 1-.07-.26v-1.91c0-.1.02-.2.07-.3a.27.27 0 0 1 .22-.12h.04c.1 0 .18.05.23.11.06.08.09.17.09.27v.18h.52V24.75c0-.24-.09-.47-.24-.64zm3.14-.02a.94.94 0 0 0-.92-.16c-.1.03-.19.09-.27.16a.89.89 0 0 0-.28.68v1.93c0 .14.02.28.07.4.05.11.12.2.21.27.08.08.17.14.28.18a.9.9 0 0 0 .63 0 .83.83 0 0 0 .56-.79v-2.03c0-.25-.1-.48-.28-.64zm-.24 2.61v.03c0 .1-.04.2-.1.26-.07.05-.16.09-.26.09s-.18-.04-.25-.1a.34.34 0 0 1-.1-.25v-2c0-.1.04-.18.1-.25.07-.05.16-.09.25-.09s.19.04.25.1c.07.06.11.15.11.25v1.96zm4.37.87V23.9h-.5l-.68 1.95-.68-1.95h-.5v3.68h.52v-2.24h.01l.52 1.58h.26l.52-1.58v2.24h.53zm2.99-3.4a.68.68 0 0 0-.3-.21c-.11-.04-.24-.06-.37-.06h-.79v3.67h.52v-1.44h.27c.16.02.32-.02.47-.1a.88.88 0 0 0 .4-.59 2.51 2.51 0 0 0-.02-.96v.02a.79.79 0 0 0-.18-.35zm-.27 1.11c0 .06-.02.13-.06.19a.26.26 0 0 1-.13.13.52.52 0 0 1-.23.05h-.25V24.4h.26c.09 0 .16 0 .24.04.06.03.1.08.13.14.02.06.04.13.04.2v.5zm2.74-1.38h-.43l-.8 3.67h.53l.15-.78h.71l.16.78h.52l-.83-3.67zm-.48 2.38.26-1.33.26 1.33h-.52zm3.87-.17h-.01l-.8-2.21h-.5v3.67h.53v-2.2h.01l.8 2.2h.49V23.9h-.53v2.22zm3.2-2.21-.43 1.46-.43-1.46h-.55l.72 2.12v1.55h.52v-1.55l.72-2.12h-.55zM17.6 28.6h.25v.72h.17v-.71h.26v-.14h-.68v.14zm2.13-.14-.34.86h.19l.06-.2H20l.06.2h.2l-.34-.85h-.19zm-.03.52.11-.32.12.32h-.23zm2.12.02h.2v.11a.33.33 0 0 1-.2.08h-.02a.21.21 0 0 1-.17-.08.36.36 0 0 1-.06-.2v-.03c0-.18.08-.28.25-.28h.01c.09 0 .16.05.18.13l.17-.03c-.04-.16-.16-.25-.36-.25h-.02c-.1 0-.2.04-.28.1a.41.41 0 0 0-.13.34c0 .11.04.23.11.32.08.08.18.13.3.13h.03c.13 0 .26-.05.36-.14v-.34h-.37V29zm2.14-.54h-.17v.86h.6v-.15h-.43v-.7zm1.81 0h-.17v.86h.17v-.85zm1.77.58-.35-.57h-.16v.85h.16v-.56l.34.56h.17v-.85h-.16v.57zm1.6-.1h.43v-.14h-.43v-.2h.46v-.13h-.63v.85h.65v-.15h-.48v-.22zm3.88-.14h-.33v-.34h-.17v.86h.17v-.37h.33v.37h.17v-.85h-.17v.33zm1.61.14h.43v-.14h-.43v-.2h.46v-.13h-.63v.85h.65v-.15h-.48v-.22zm2.18 0c.15-.02.23-.1.23-.24v-.02a.2.2 0 0 0-.08-.16.48.48 0 0 0-.23-.05h-.39v.85h.17v-.36h.04c.03 0 .07 0 .1.02s.06.04.07.07l.18.26h.2l-.1-.16a.56.56 0 0 0-.19-.2zm-.17-.11h-.12v-.21h.13c.06-.01.12 0 .18.01a.1.1 0 0 1-.01.18.47.47 0 0 1-.14.02h-.04zm1.82.12h.43v-.15h-.43v-.2h.46v-.13h-.63v.85h.65v-.15h-.48v-.22z"/></symbol><symbol id="icon-logo-3" viewBox="0 0 57 32"><path d="M19.41 26.19h.03l.02.01.12.12c-.1.09-.2.16-.32.2-.15.06-.31.09-.47.08-.15 0-.3-.02-.44-.07a.9.9 0 0 1-.53-.5 1.02 1.02 0 0 1 0-.8.96.96 0 0 1 .57-.5 1.35 1.35 0 0 1 .88 0l-.01-.01c.11.04.22.1.3.18l-.09.12-.02.02a.06.06 0 0 1-.04 0 .1.1 0 0 1-.04 0L19.3 25l-.07-.04a.82.82 0 0 0-.36-.08h-.04c-.1 0-.22.01-.32.05a.69.69 0 0 0-.42.39c-.04.1-.06.2-.06.31 0 .1.02.22.06.32.07.18.22.32.4.38.1.04.2.06.3.06l.18-.01a.7.7 0 0 0 .38-.17.09.09 0 0 1 .06-.02zm3.37-.56c0 .14-.03.27-.08.4a.94.94 0 0 1-.57.5c-.28.1-.6.1-.88 0a1 1 0 0 1-.34-.2.9.9 0 0 1-.22-.3v-.01a1 1 0 0 1 0-.79.95.95 0 0 1 .22-.3 1.14 1.14 0 0 1 .78-.27c.16 0 .32.02.46.07h-.01c.12.05.24.12.34.2.19.17.3.4.3.67v.03zm-.3 0c0-.1-.02-.21-.06-.32a.66.66 0 0 0-.4-.38 1 1 0 0 0-.65 0 .68.68 0 0 0-.24.15.65.65 0 0 0-.16.23 1 1 0 0 0 0 .64c.07.18.22.32.4.38.21.07.44.07.64 0 .1-.03.18-.08.25-.15a.66.66 0 0 0 .16-.23c.04-.1.05-.21.05-.32zm2.59.33.03.07.03-.07.04-.07.75-1.17c0-.02.02-.04.03-.04H26.24v1.9h-.26v-1.52l-.75 1.19a.1.1 0 0 1-.04.04.13.13 0 0 1-.07.02h-.04l-.07-.02a.1.1 0 0 1-.04-.04l-.76-1.2v1.53h-.26v-1.9h.28c.02 0 .03.02.04.04l.76 1.17.04.07zm2.8-.1v.72h-.3v-1.9h.66c.11 0 .24 0 .35.04.1.02.19.06.26.11.07.06.12.12.15.19.03.08.05.16.05.24v.01c0 .17-.09.33-.22.43a.64.64 0 0 1-.25.12c-.1.03-.22.05-.34.05h-.37zm0-.2h.35c.08 0 .15 0 .23-.03a.5.5 0 0 0 .16-.08.37.37 0 0 0 .13-.29v-.02c0-.05-.01-.1-.03-.13a.39.39 0 0 0-.1-.13.63.63 0 0 0-.4-.1h-.35v.78zm3.9.92h-.23a.1.1 0 0 1-.06-.01.12.12 0 0 1-.04-.05l-.2-.46h-.98l-.21.46-.03.04a.1.1 0 0 1-.06.02H29.72l.87-1.9h.3l.89 1.9zm-1.44-.7h.83l-.35-.78a1.23 1.23 0 0 1-.07-.18l-.03.1-.03.08-.35.77zm2.7-1.2.05.04 1.27 1.44v-1.49h.26v1.91h-.21a.16.16 0 0 1-.04-.04l-1.27-1.44v1.48h-.26v-1.9h.2zm3.72 1.14v.76h-.29v-.75l-.8-1.16h.26a.1.1 0 0 1 .06.02l.04.04.5.75.09.16.04-.08.05-.08.5-.75a.21.21 0 0 1 .03-.04.1.1 0 0 1 .06-.02h.27l-.81 1.16zm-11.82-4.35.38.04a10.7 10.7 0 0 0 4.75-3.57l.02-.03a8.53 8.53 0 0 0 1.7-5.12v-.16l-2.17-1.87a9.56 9.56 0 0 1-.59 5.93c-.9 1.99-2.3 3.6-4.05 4.76l-.04.02z"/><path d="M24.15 21.39h.06a10.81 10.81 0 0 0 4.32-4.92 9.09 9.09 0 0 0 .39-6.25l.02.07-3.09-2.67a11.36 11.36 0 0 1 1.44 7.15v-.06a12.1 12.1 0 0 1-3.14 6.68zm10.45-6.55c-.6 2.18-1.88 4-3.6 5.26l-.03.02c-.53.4-1.1.76-1.71 1.07a10.6 10.6 0 0 0 4-1.96 8.92 8.92 0 0 0 2.57-3.26l.02-.05-1.25-1.08z"/><path  d="m34.11 14.54-1.78-1.55A8.9 8.9 0 0 1 30.64 18l.02-.02a10.93 10.93 0 0 1-4.29 3.53l-.06.03c.4 0 .8-.02 1.2-.06 1.7-.6 3.14-1.54 4.3-2.75a9.02 9.02 0 0 0 2.29-4.13l.01-.06zm-9.7-8.06L22.3 4.64c-1.9.62-3.48 1.74-4.67 3.2h-.02a7.95 7.95 0 0 0-1.77 4.95 8.05 8.05 0 0 0 2.15 5.4 10.33 10.33 0 0 0 5.43 3.08l.07.01a11.6 11.6 0 0 0 3.25-7.23v-.04c.02-.19.02-.41.02-.64 0-2.6-.88-5-2.36-6.91l.02.02zm14.6 7.78a8.22 8.22 0 0 0-2.95-6.18 10.85 10.85 0 0 0-7.03-2.57h-.08c-1.23 0-2.45.2-3.6.59l12.99 11.28c.42-.92.67-2 .67-3.12z"/></symbol><symbol id="icon-logo-4" viewBox="0 0 57 32"><path d="M12.88 11.25c-1.28 0-2.32.93-2.32 2.06 0 1.14 1.04 2.06 2.32 2.06 1.28 0 2.32-.92 2.32-2.06 0-1.13-1.04-2.06-2.32-2.06zm17.1-.65c0-1.58-.72-3.1-1.98-4.22a7.12 7.12 0 0 0-4.68-1.74h-.05c-1.77 0-3.48.63-4.73 1.75a5.64 5.64 0 0 0-1.98 4.2v8.71s13.42-1.33 13.42-8.7zM5.87 22.16c0 1.1.5 2.15 1.37 2.93a4.96 4.96 0 0 0 3.26 1.22h.03c1.24 0 2.42-.44 3.3-1.22a3.93 3.93 0 0 0 1.37-2.93v-6.05s-9.33.92-9.33 6.05zm4.66 1.08a1.3 1.3 0 0 1-.68-.18c-.2-.11-.35-.28-.44-.48a.96.96 0 0 1-.07-.64c.04-.2.16-.4.33-.55.17-.15.38-.25.62-.3.24-.03.49-.01.7.07s.43.22.56.4a1 1 0 0 1-.15 1.37 1.27 1.27 0 0 1-.87.32zm9.43-.6h-.9v.94h-.47V21.3h1.48v.38h-1.01v.59h.9v.38zm2.25-.15c0 .23-.04.42-.12.59a.9.9 0 0 1-.81.53h-.07a.9.9 0 0 1-.82-.52 1.32 1.32 0 0 1-.12-.55v-.14c0-.23.04-.43.13-.6a.91.91 0 0 1 .82-.53h.03c.18 0 .35.05.5.14.15.1.26.23.34.4.08.16.12.36.12.59v.1zm-.48-.1a.95.95 0 0 0-.12-.54.42.42 0 0 0-.35-.2h-.02c-.15 0-.28.07-.36.19s-.13.3-.13.54v.11c0 .24.04.41.13.54s.21.2.37.2.27-.07.36-.19.13-.3.13-.54v-.11zm2 .6c0-.1-.03-.17-.1-.21-.09-.07-.2-.12-.32-.15h-.01c-.16-.05-.29-.1-.39-.16-.25-.14-.38-.32-.38-.56 0-.13.03-.23.1-.33s.17-.17.3-.23a1.13 1.13 0 0 1 .87.01.66.66 0 0 1 .4.61h-.46a.3.3 0 0 0-.1-.23.4.4 0 0 0-.26-.1h-.05c-.09 0-.17.03-.24.08a.23.23 0 0 0-.1.19c0 .08.04.14.12.19.07.05.18.1.33.14.26.08.46.18.58.3a.6.6 0 0 1 .18.44c0 .2-.07.35-.22.46s-.35.18-.6.18h-.02c-.16 0-.32-.04-.47-.1a.68.68 0 0 1-.43-.64v-.01h.46c0 .25.16.37.46.37.1 0 .2-.02.26-.06.06-.06.09-.11.09-.2zm2.5-1.3h-.7v1.89h-.46v-1.9h-.7v-.37h1.86v.37zm1.64.9h-.9v.61h1.06v.37H26.5V21.3h1.52v.38h-1.05v.54h.9v.37zm1.28.16h-.37v.83h-.48V21.3h.85c.27 0 .47.06.62.18.15.12.22.29.22.5 0 .17-.03.3-.1.4a.61.61 0 0 1-.3.24l.48.94v.02h-.5l-.42-.83zm-.37-.39h.37c.12 0 .21-.02.27-.08s.1-.14.1-.23v-.02c0-.1-.03-.2-.1-.25-.05-.07-.15-.1-.27-.1h-.37v.68zm2.83.41v.8h-.46V21.3h.88c.17 0 .32.03.45.1.13.06.23.15.3.27.07.1.1.24.1.38 0 .23-.07.4-.23.54a.97.97 0 0 1-.62.18h-.42zm0-.37h.42a.4.4 0 0 0 .28-.09c.07-.06.1-.14.1-.25v-.01c0-.1-.03-.2-.1-.26a.37.37 0 0 0-.26-.1h-.44v.7zm2.97.2h-.9v.6h1.05v.37h-1.52V21.3h1.52v.38h-1.05v.55h.9v.36zm2.18-.91h-.7v1.89h-.47v-1.9h-.69v-.37h1.86v.37zm1.63.9h-.9v.61h1.06v.37h-1.53V21.3h1.52v.38H37.5v.55h.9v.36zm1.27.16h-.37v.83h-.47V21.3h.85c.27 0 .48.06.62.18.15.12.22.29.22.5 0 .17-.04.3-.1.4a.65.65 0 0 1-.3.24l.49.94v.02h-.51l-.43-.83zm-.37-.39h.38c.11 0 .21-.02.27-.08.07-.06.1-.14.1-.23v-.02c0-.1-.03-.2-.1-.25-.05-.07-.14-.1-.27-.1h-.37v.68zm2.76.62c0-.09-.04-.16-.1-.2-.1-.06-.2-.12-.33-.15-.17-.05-.3-.1-.39-.16-.26-.14-.39-.32-.39-.56 0-.13.03-.23.1-.33s.17-.17.3-.23a1.16 1.16 0 0 1 .88.01c.12.05.22.14.29.25.07.1.1.23.1.37h-.46c0-.11-.04-.2-.1-.24a.4.4 0 0 0-.25-.1h-.05c-.1 0-.18.03-.25.08a.23.23 0 0 0-.09.19c0 .08.04.14.1.19.09.05.2.1.34.14.27.08.46.18.58.3s.18.26.18.44c0 .2-.07.35-.22.46s-.35.18-.6.18h-.02c-.17 0-.33-.04-.47-.1a.68.68 0 0 1-.44-.64v-.01h.48c0 .25.15.37.45.37.11 0 .2-.02.26-.06.06-.06.1-.11.1-.2z"/></symbol><symbol id="icon-logo-5" viewBox="0 0 57 32"><path d="M14.27 23.86c.13.15.2.33.2.52a.73.73 0 0 1-.07.36.89.89 0 0 1-.23.3c-.26.17-.57.26-.89.24h-1.54v-3.3h1.59c.29 0 .55.08.77.22a.76.76 0 0 1 .29.62.7.7 0 0 1-.18.5.83.83 0 0 1-.46.26c.2.03.39.13.52.28zm-1.81-.5h.64c.15.01.3-.03.42-.1.05-.05.08-.1.1-.16a.33.33 0 0 0 .04-.17.35.35 0 0 0-.03-.18.42.42 0 0 0-.1-.14.66.66 0 0 0-.44-.11h-.63v.86zm1.12 1.27a.42.42 0 0 0 .15-.34v-.02a.42.42 0 0 0-.16-.32.71.71 0 0 0-.39-.12h-.73v.91h.7c.15.01.3-.03.42-.12zm3.8.65L16.53 24h-.32v1.3h-.73v-3.32h1.48c.32 0 .62.1.86.29a.99.99 0 0 1 .1 1.37c-.17.17-.4.3-.66.33l.9 1.32h-.8zm-1.17-1.74h.6c.4 0 .62-.16.62-.5v-.02a.5.5 0 0 0-.16-.35.67.67 0 0 0-.4-.14H16.2l.01 1zm5.13 1.07H19.9l-.26.67h-.76l1.33-3.27h.82l1.32 3.27h-.76l-.26-.67zm-.2-.5-.52-1.39-.53 1.4h1.06zm5.17 1.17h-.72l-1.62-2.25v2.24h-.71v-3.3h.72l1.61 2.27v-2.26h.72v3.3zm4.1-.8c-.14.26-.36.46-.64.6-.32.14-.66.2-1.01.2h-1.28v-3.3h1.28c.35-.01.7.06 1 .2.28.13.5.33.66.58a1.77 1.77 0 0 1 0 1.73zm-.81-.07c.2-.22.32-.5.32-.79s-.12-.57-.32-.79a1.32 1.32 0 0 0-.91-.27h-.5v2.13h.5c.33.02.66-.08.9-.28zm-7.8-20.8s9.3 3.21 9.1 7.87v7.86s-9.3-3.21-9.1-7.86V3.6zm17.38 13.9a13.32 13.32 0 0 1 5.86-2h.05v-2.46a12.02 12.02 0 0 0-5.88 4.42l-.03.03z"/><path d="M38.13 18.24A12.39 12.39 0 0 1 45 12.56l.1-.03v-7.1S31.83 10 32.11 16.63v11.2s.6-.2 1.53-.59c0-.36 0-.72.04-1.08a11.36 11.36 0 0 1 4.4-7.9l.03-.02z"/><path  d="M36.87 22.4c.07-.77.22-1.54.46-2.29a10.32 10.32 0 0 0-2.8 6.76v.02c.75-.34 1.62-.75 2.55-1.24a10.7 10.7 0 0 1-.21-3.24zm.52.05c-.09.98-.03 1.97.17 2.93 3.62-1.98 7.68-5.04 7.53-8.74v-.32a12.36 12.36 0 0 0-6.9 2.95l.01-.01c-.42.93-.7 2.01-.8 3.15v.04z"/></symbol><symbol id="icon-logo-6" viewBox="0 0 57 32"><path d="M28.5 14.61a1.56 1.56 0 0 1-.33-1.06v-1.53c0-.47.11-.83.32-1.07s.59-.37 1.1-.37c.5 0 .84.1 1.05.31.22.27.33.6.3.92v.36h-.87v-.36c0-.13 0-.24-.03-.36a.35.35 0 0 0-.12-.21.5.5 0 0 0-.28-.09h-.07a.53.53 0 0 0-.3.1.42.42 0 0 0-.15.23c-.02.12-.03.25-.03.37v1.87c-.02.18.03.36.11.53a.44.44 0 0 0 .4.15h.04c.1 0 .2-.03.27-.08a.37.37 0 0 0 .13-.23c.02-.12.03-.25.03-.37v-.39h.87v.35c.03.34-.08.68-.3.97-.2.22-.54.34-1.04.34-.51 0-.89-.13-1.1-.38zm3.64.03c-.22-.25-.33-.6-.33-1.06v-1.61c0-.46.1-.8.33-1.04.22-.24.59-.35 1.11-.35.51 0 .88.11 1.1.35.22.23.34.58.34 1.04v1.61c0 .46-.12.8-.34 1.05-.22.24-.59.36-1.1.36s-.89-.12-1.1-.36zm1.52-.4a.9.9 0 0 0 .1-.48V11.8a.86.86 0 0 0-.1-.47.41.41 0 0 0-.18-.13.48.48 0 0 0-.23-.03h-.06a.49.49 0 0 0-.18.03.43.43 0 0 0-.18.13.96.96 0 0 0-.1.47v1.99c0 .16.02.33.1.48a.62.62 0 0 0 .64.11.57.57 0 0 0 .19-.11v-.02zm2.08-3.62h.94l.71 2.99.73-2.99h.91l.1 4.31h-.68l-.08-2.99-.7 3h-.55l-.72-3.01-.07 3h-.68l.08-4.3zm4.44 0h1.47c.84 0 1.27.41 1.27 1.23 0 .78-.45 1.17-1.34 1.17h-.5v1.91h-.9v-4.3zm1.25 1.85c.1 0 .18 0 .27-.02a.77.77 0 0 0 .23-.12.7.7 0 0 0 .13-.48c0-.14 0-.27-.04-.4a.36.36 0 0 0-.18-.2.95.95 0 0 0-.4-.07h-.36v1.3h.35zm2.79-1.85h.97l1 4.31h-.84l-.2-.99h-.87l-.2 1h-.85l1-4.32zm.84 2.82-.35-1.8-.33 1.8h.67zM47 10.62h.64l1.2 2.46v-2.45h.76v4.3H49l-1.22-2.56v2.56H47v-4.3zm4.37 2.67-1.02-2.66h.86l.6 1.7.58-1.7h.84l-1 2.66v1.64h-.87V13.3zM29.9 16.82v.22h-.74v1.75h-.31v-1.75h-.75v-.22h1.8zm2.32 1.98h-.25a.1.1 0 0 1-.06-.03.1.1 0 0 1-.04-.04l-.22-.47h-1.02l-.21.47-.04.05a.1.1 0 0 1-.05.02h-.26l.91-1.98h.32l.91 1.97zm-1.5-.74h.85l-.37-.8a1.33 1.33 0 0 1-.06-.18v-.01l-.04.1-.03.09-.36.8zm3.05.54h.17c.1 0 .2-.03.29-.06l.11-.05v-.44h-.36c-.02 0-.04 0-.05-.02l-.01-.01v-.17h.7v.75c-.18.11-.38.18-.6.2H34l-.27.02c-.16 0-.3-.03-.46-.08a1.13 1.13 0 0 1-.36-.2.96.96 0 0 1-.23-.31 1 1 0 0 1-.08-.42v-.03a.9.9 0 0 1 .31-.7c.1-.08.23-.15.36-.2a1.5 1.5 0 0 1 .75-.05h-.01c.15.02.28.06.4.13l.16.1-.1.12-.02.02a.1.1 0 0 1-.04.01l-.06-.01a1.12 1.12 0 0 0-.58-.16h-.02c-.13 0-.24.01-.35.05a.74.74 0 0 0-.44.4.94.94 0 0 0 0 .66.78.78 0 0 0 .8.44zm2.9-.03h.98v.22h-1.29v-1.97h.31v1.74zm2.01.23h-.3v-1.98h.3v1.98zm1.15-1.97c.02 0 .04.02.05.03l1.32 1.5V16.8h.27v1.99h-.15c-.02 0-.05 0-.07-.02a.18.18 0 0 1-.04-.03l-1.33-1.5v1.55h-.26v-1.98h.21zm3.93-.01v.2h-1.1v.67h.9v.2h-.9v.68h1.1v.21h-1.42v-1.96h1.42zM11.29 4.62l13.76 3.37V19.8l-13.76-3.37V4.62zM10.4 3.6v13.41l15.52 3.81V7.42L10.4 3.6z"/><path d="M18.72 27.04 3.2 23.22V9.82l15.52 3.82v13.4z"/><path d="M10.66 4.46 24.24 7.8l-5.77 4.98L4.88 9.45l5.77-4.99zm-.25-.85L3.2 9.83l15.52 3.8 7.2-6.22-15.52-3.8zm9.19 22.67 6.33-5.46-6.33-1.56v7.02z"/></symbol><symbol id="icon-modal-close" viewBox="0 0 32 32"><path d="M32 3.223 28.777 0 16 12.777 3.223 0 0 3.223 12.777 16 0 28.777 3.223 32 16 19.223 28.777 32 32 28.777 19.223 16 32 3.223z"/></symbol><symbol id="icon-modal-email" viewBox="0 0 32 32"><path d="M26.69 5.34H5.34A2.67 2.67 0 0 0 2.67 8v16c0 1.47 1.19 2.68 2.67 2.68h21.35a2.69 2.69 0 0 0 2.67-2.67V8a2.68 2.68 0 0 0-2.67-2.67zM26.15 11l-9.43 5.9a1.34 1.34 0 0 1-1.42-.01l-9.43-5.87A1.14 1.14 0 1 1 7.1 9.11L16 14.68l8.95-5.59a1.14 1.14 0 1 1 1.2 1.92z"/></symbol><symbol id="icon-modal-person" viewBox="0 0 32 32"><path d="M16.01 16.01a5.34 5.34 0 0 0 0-10.67 5.34 5.34 0 0 0 0 10.67zm0 2.67c-3.56 0-10.67 1.78-10.67 5.34v1.33c0 .73.6 1.34 1.33 1.34h18.68c.73 0 1.34-.6 1.34-1.34v-1.33c0-3.56-7.12-5.34-10.68-5.34z"/></symbol><symbol id="icon-modal-phone" viewBox="0 0 32 32"><path d="m24.9 19.78-3.27-.35c-.78-.1-1.56.18-2.11.71l-2.37 2.38a19.52 19.52 0 0 1-8.43-8.38l-.06-.1 2.39-2.39c.55-.55.82-1.33.73-2.11l-.36-3.24a2.58 2.58 0 0 0-2.56-2.28H6.62A2.56 2.56 0 0 0 4.04 6.7a21.9 21.9 0 0 0 20.4 20.46h.06a2.56 2.56 0 0 0 2.67-2.58v-2.22c0-1.32-.97-2.4-2.26-2.57z"/></symbol></defs></svg>